# xmcd
#
# Track frame offsets:
#	150
#	11460
#	23487
#	36112
#	46280
#	58684
#	68850
#	79876
#	86733
#	94567
#	103714
#	115486
#	125164
#	135322
#	146066
#
# Disc length: 2082 seconds
#
# Revision: 3
# Processed by: cddbd v1.5.2PL0 Copyright (c) Steve Scherf et al.
# Submitted via: audiograbber 1.83.01
#
DISCID=c808200f
DTITLE=Various Artist - Certified #1 Country Hits, cd 1
DYEAR=2011
DGENRE=Country
TTITLE0=Kitty Wells - It Wasn't God Who Made Honky Tonk Angels
TTITLE1=Jim Reeves - Mexican Joe
TTITLE2=Jim Reeves - Bimbo
TTITLE3=Faron Young - Live Fast, Love Hard, Die Young
TTITLE4=Porter Wagoner - Satisfied Mind
TTITLE5=Ferlin Husky - Gone
TTITLE6=Don Gibson - Oh Lonesome Me
TTITLE7=Faron Young - Alone With You
TTITLE8=Don Gibson - Blue, Blue Day
TTITLE9=Jim Reeves - Billy Bayou
TTITLE10=George Jones - White Lightning
TTITLE11=Faron Young - Country Girl
TTITLE12=Jim Reeves - He'll Have To Go
TTITLE13=Ferlin Husky - Wings Of A Dove
TTITLE14=Faron Young - Hello Walls
EXTD=
EXTT0=
EXTT1=
EXTT2=
EXTT3=
EXTT4=
EXTT5=
EXTT6=
EXTT7=
EXTT8=
EXTT9=
EXTT10=
EXTT11=
EXTT12=
EXTT13=
EXTT14=
PLAYORDER=
